<svg width="1100" height="1100" viewBox="0 0 1100 1100" fill="none" xmlns="http://www.w3.org/2000/svg">
<path fill-rule="evenodd" clip-rule="evenodd" d="M613.324 589.19C636.012 577.877 664.88 561.225 693.783 538.409C699.877 551.064 700.544 562.107 697.405 571.024C695.18 577.309 690.987 582.775 685.474 587.123C679.503 591.823 672.047 595.244 663.805 597.093C648.165 600.616 629.906 598.559 613.324 589.19ZM617.258 705.1L647.29 722.447C585.969 756.815 569.299 820.631 549.497 882.789C529.697 820.631 513.024 756.815 451.705 722.447L481.738 705.1C484.643 704.002 487.126 702.012 488.832 699.417C490.537 696.821 491.377 693.752 491.231 690.65C488.48 632.438 504.198 606.695 525.4 590.532C533.004 584.743 541.306 581.835 549.497 581.835C557.687 581.835 565.989 584.743 573.596 590.532C594.798 606.695 610.516 632.438 607.764 690.65C607.619 693.752 608.459 696.821 610.164 699.417C611.869 702.012 614.352 704.002 617.258 705.1ZM549.497 325C584.212 325.932 619.013 332.671 649.216 345.781C670.131 354.871 689.647 366.878 707.318 381.237C715.299 387.719 721.87 393.981 729.108 401.19C748.632 401.864 777.164 380.176 790.41 359.882C767.613 434.616 663.587 522.869 591.569 556.639C591.539 556.627 591.519 556.609 591.497 556.594C578.572 546.726 564.036 541.791 549.497 541.791C534.957 541.791 520.423 546.726 507.498 556.594C507.476 556.607 507.456 556.629 507.427 556.639C435.406 522.869 331.382 434.616 308.586 359.882C321.83 380.176 350.362 401.864 369.885 401.19C377.126 393.983 383.697 387.719 391.675 381.237C409.346 366.878 428.862 354.871 449.777 345.781C479.983 332.671 514.784 325.932 549.497 325ZM485.669 589.19C462.984 577.877 434.113 561.225 405.213 538.409C399.119 551.064 398.451 562.107 401.588 571.024C403.816 577.309 408.009 582.775 413.519 587.123C419.492 591.823 426.949 595.244 435.191 597.093C450.83 600.616 469.088 598.559 485.669 589.19Z" fill="black"/>
<path fill-rule="evenodd" clip-rule="evenodd" d="M725.441 510.452C741.352 494.395 755.372 476.623 766.645 460.764L772.371 471.54C790.804 508.417 800.381 545.146 800.381 586.48L800.342 652.072L800.688 686.074C802.023 769.549 820.085 854.005 861 931.295L775.394 862.267L714.822 960.558L651.187 900.655L549.5 1065.67L447.813 900.658L384.18 960.561L323.608 862.27L238 931.298C278.915 854.008 296.977 769.551 298.315 686.076L298.661 652.074L298.621 586.483C298.621 545.146 308.196 508.417 326.634 471.542L332.357 460.766C343.631 476.625 357.648 494.395 373.562 510.454L368.593 520.775C358.939 540.822 355.742 563.237 363.263 584.555C368.111 598.285 376.959 610.06 388.366 619.049C399.441 627.778 412.549 633.662 426.272 636.752C435.212 638.764 444.319 639.592 453.368 639.311C451.256 651.278 450.334 663.691 450.275 676.339L369.522 722.978L431.837 757.908C436.818 760.7 441.559 763.899 446.013 767.472C497.388 813.598 528.276 950.054 549.502 1016.71C570.731 950.054 601.617 813.598 652.995 767.472C657.448 763.899 662.189 760.699 667.17 757.908L729.485 722.978L648.73 676.339C648.671 663.691 647.749 651.278 645.637 639.311C654.686 639.592 663.793 638.764 672.733 636.752C686.456 633.662 699.566 627.778 710.639 619.049C722.044 610.06 730.894 598.285 735.74 584.555C743.263 563.237 740.064 540.825 730.412 520.775L725.443 510.454L725.441 510.452Z" fill="black"/>
</svg>
